<svg width="17" height="14" viewBox="0 0 17 14" fill="none" xmlns="http://www.w3.org/2000/svg">
<path d="M1.03449 13.6997H14.8242C15.3949 13.6997 15.8587 13.204 15.8587 12.594V10.0988H10.9087C10.538 10.0988 10.1759 10.0214 9.83625 9.86656C9.50866 9.71914 9.21383 9.50537 8.96211 9.23633C8.71038 8.96727 8.51038 8.65212 8.37245 8.30198C8.22934 7.93894 8.15521 7.55194 8.15521 7.15572V6.84428C8.15521 6.44806 8.22762 6.06107 8.37245 5.69802C8.51038 5.34788 8.7104 5.03275 8.96211 4.76369C9.21385 4.49464 9.50866 4.28087 9.83625 4.13344C10.1759 3.98048 10.538 3.90124 10.9087 3.90124H15.8587V1.40601C15.8587 0.796022 15.3949 0.300293 14.8242 0.300293H1.03449C0.463795 0.300293 0 0.796022 0 1.40601V12.594C0 13.204 0.463795 13.6997 1.03449 13.6997Z" fill="white"/>
<path d="M16.9998 5.83612C16.9998 5.37725 16.6533 5.00684 16.224 5.00684H15.8584H10.9084C9.9584 5.00684 9.18945 5.82875 9.18945 6.84417V7.15561C9.18945 8.17102 9.95842 8.99292 10.9084 8.99292H15.8584H16.224C16.6533 8.99292 16.9998 8.6225 16.9998 8.16363V5.83612ZM11.1895 7.97568C10.6843 7.97568 10.2757 7.53894 10.2757 6.99897C10.2757 6.45901 10.6843 6.02225 11.1895 6.02225C11.6946 6.02225 12.1033 6.45901 12.1033 6.99897C12.1033 7.53894 11.6946 7.97568 11.1895 7.97568Z" fill="white"/>
</svg>
