<svg width="14" height="11" viewBox="0 0 14 11" fill="none" xmlns="http://www.w3.org/2000/svg">
<path d="M13.6438 10.3087C13.6999 10.2008 13.7256 10.0798 13.7181 9.95843C13.7106 9.8371 13.6701 9.72011 13.6012 9.62002L7.60116 0.953348C7.53981 0.86479 7.4579 0.792419 7.36246 0.742435C7.26703 0.692451 7.1609 0.666341 7.05316 0.666341C6.94543 0.666341 6.83929 0.692451 6.74386 0.742435C6.64842 0.792419 6.56651 0.86479 6.50516 0.953348L0.505161 9.62002C0.435956 9.72003 0.395431 9.83708 0.387973 9.95847C0.380516 10.0799 0.406411 10.201 0.462853 10.3087C0.519296 10.4165 0.604136 10.5067 0.708187 10.5697C0.812238 10.6327 0.931535 10.666 1.05316 10.666H13.0532C13.1749 10.666 13.2942 10.6327 13.3983 10.5698C13.5025 10.5068 13.5874 10.4165 13.6438 10.3087Z" fill="white"/>
</svg>
