<svg width="26" height="26" viewBox="0 0 26 26" fill="none" xmlns="http://www.w3.org/2000/svg">
<g clip-path="url(#clip0_641_3630)">
<path d="M13 26C20.1797 26 26 20.1797 26 13C26 5.82029 20.1797 0 13 0C5.82029 0 0 5.82029 0 13C0 20.1797 5.82029 26 13 26Z" fill="#EDBC04"/>
<path d="M13.1442 9.44548L15.3738 11.6408C15.4541 11.7197 15.5841 11.7197 15.6642 11.6408L16.8395 10.4836C16.9196 10.4047 16.9196 10.2767 16.8395 10.1978L13.1441 6.55923C13.064 6.48026 12.9339 6.48026 12.8538 6.55923L9.15975 10.1965C9.07956 10.2754 9.07956 10.4034 9.15975 10.4823L10.335 11.6394C10.4151 11.7184 10.5452 11.7184 10.6254 11.6394L12.8538 9.44548C12.934 9.36651 13.064 9.36651 13.1442 9.44548Z" fill="white"/>
<path d="M7.66332 11.7565L6.55662 12.8633C6.48113 12.9388 6.48113 13.0611 6.55662 13.1367L7.66323 14.2433C7.73872 14.3188 7.86119 14.3188 7.93668 14.2433L9.04338 13.1366C9.11887 13.0611 9.11887 12.9387 9.04338 12.8633L7.93673 11.7566C7.86128 11.6811 7.73886 11.6811 7.66332 11.7565Z" fill="white"/>
<path d="M13.1448 19.4408L16.8395 15.8016C16.9197 15.7227 16.9197 15.5946 16.8394 15.5157L15.6639 14.3592C15.5838 14.2803 15.4538 14.2803 15.3737 14.3593L13.1448 16.5546C13.0646 16.6335 12.9346 16.6335 12.8545 16.5546L10.6266 14.3604C10.5465 14.2815 10.4167 14.2814 10.3365 14.3601L9.15993 15.5158C9.07959 15.5947 9.07948 15.7228 9.15973 15.8018L12.8545 19.4408C12.9347 19.5198 13.0646 19.5198 13.1448 19.4408Z" fill="white"/>
<path d="M18.0637 11.7565L16.957 12.8633C16.8815 12.9387 16.8815 13.0612 16.957 13.1366L18.0637 14.2433C18.1391 14.3188 18.2616 14.3188 18.3371 14.2433L19.4438 13.1366C19.5193 13.0611 19.5193 12.9387 19.4438 12.8632L18.3371 11.7565C18.2616 11.6811 18.1392 11.6811 18.0637 11.7565Z" fill="white"/>
<path d="M14.2445 12.8654L13.1347 11.7557C13.0605 11.6814 12.9399 11.6814 12.8656 11.7557L11.7559 12.8654C11.6816 12.9396 11.6816 13.0601 11.7559 13.1344L12.8656 14.2442C12.9399 14.3185 13.0605 14.3185 13.1347 14.2442L14.2445 13.1344C14.3188 13.0601 14.3188 12.9396 14.2445 12.8654Z" fill="white"/>
</g>
<defs>
<clipPath id="clip0_641_3630">
<rect width="26" height="26" fill="white"/>
</clipPath>
</defs>
</svg>
