<svg width="40" height="40" viewBox="0 0 40 40" fill="none" xmlns="http://www.w3.org/2000/svg">
<g clip-path="url(#clip0_236_49816)">
<g filter="url(#filter0_bdi_236_49816)">
<path d="M20 40C31.0457 40 40 31.0457 40 20C40 8.95431 31.0457 0 20 0C8.95431 0 0 8.95431 0 20C0 31.0457 8.95431 40 20 40Z" fill="#2B1B4E" fill-opacity="0.4" shape-rendering="crispEdges"/>
<path d="M39.5 20C39.5 30.7696 30.7696 39.5 20 39.5C9.23045 39.5 0.5 30.7696 0.5 20C0.5 9.23045 9.23045 0.5 20 0.5C30.7696 0.5 39.5 9.23045 39.5 20Z" stroke="#814BF6" stroke-opacity="0.2" shape-rendering="crispEdges"/>
</g>
<g clip-path="url(#clip1_236_49816)">
<path d="M28.8891 12.8991C28.0002 13.3346 27.1291 13.5115 26.2224 13.7791C25.226 12.6546 23.7487 12.5924 22.3291 13.124C20.9095 13.6555 19.9798 14.9551 20.0002 16.4458V17.3346C17.1158 17.4084 14.5469 16.0946 12.8891 13.7791C12.8891 13.7791 9.17177 20.3862 16.4447 23.5569C14.7807 24.6653 13.1211 25.4129 11.1113 25.3346C14.0518 26.9373 17.2562 27.4884 20.0304 26.6831C23.2127 25.7586 25.8278 23.3738 26.8313 19.8013C27.1307 18.7148 27.2793 17.5923 27.2731 16.4653C27.2713 16.244 28.6153 14.0013 28.8891 12.8982V12.8991Z" stroke="white" stroke-width="2" stroke-linecap="round" stroke-linejoin="round"/>
</g>
</g>
<defs>
<filter id="filter0_bdi_236_49816" x="-10" y="-10" width="60" height="60" filterUnits="userSpaceOnUse" color-interpolation-filters="sRGB">
<feFlood flood-opacity="0" result="BackgroundImageFix"/>
<feGaussianBlur in="BackgroundImageFix" stdDeviation="5"/>
<feComposite in2="SourceAlpha" operator="in" result="effect1_backgroundBlur_236_49816"/>
<feColorMatrix in="SourceAlpha" type="matrix" values="0 0 0 0 0 0 0 0 0 0 0 0 0 0 0 0 0 0 127 0" result="hardAlpha"/>
<feOffset dy="1"/>
<feComposite in2="hardAlpha" operator="out"/>
<feColorMatrix type="matrix" values="0 0 0 0 0 0 0 0 0 0 0 0 0 0 0 0 0 0 0.25 0"/>
<feBlend mode="normal" in2="effect1_backgroundBlur_236_49816" result="effect2_dropShadow_236_49816"/>
<feBlend mode="normal" in="SourceGraphic" in2="effect2_dropShadow_236_49816" result="shape"/>
<feColorMatrix in="SourceAlpha" type="matrix" values="0 0 0 0 0 0 0 0 0 0 0 0 0 0 0 0 0 0 127 0" result="hardAlpha"/>
<feOffset dy="1"/>
<feComposite in2="hardAlpha" operator="arithmetic" k2="-1" k3="1"/>
<feColorMatrix type="matrix" values="0 0 0 0 0.505882 0 0 0 0 0.294118 0 0 0 0 0.964706 0 0 0 0.2 0"/>
<feBlend mode="normal" in2="shape" result="effect3_innerShadow_236_49816"/>
</filter>
<clipPath id="clip0_236_49816">
<rect width="40" height="40" fill="white"/>
</clipPath>
<clipPath id="clip1_236_49816">
<rect width="21.3333" height="21.3333" fill="white" transform="translate(9.33398 9.33398)"/>
</clipPath>
</defs>
</svg>
