<svg width="40" height="40" viewBox="0 0 40 40" fill="none" xmlns="http://www.w3.org/2000/svg">
<g clip-path="url(#clip0_236_49832)">
<g filter="url(#filter0_bdi_236_49832)">
<path d="M20 40C31.0457 40 40 31.0457 40 20C40 8.95431 31.0457 0 20 0C8.95431 0 0 8.95431 0 20C0 31.0457 8.95431 40 20 40Z" fill="#2B1B4E" fill-opacity="0.4" shape-rendering="crispEdges"/>
<path d="M39.5 20C39.5 30.7696 30.7696 39.5 20 39.5C9.23045 39.5 0.5 30.7696 0.5 20C0.5 9.23045 9.23045 0.5 20 0.5C30.7696 0.5 39.5 9.23045 39.5 20Z" stroke="#814BF6" stroke-opacity="0.2" shape-rendering="crispEdges"/>
</g>
<g clip-path="url(#clip1_236_49832)">
<path d="M14 17.7778V22.2222H17.3333V30H21.7778V22.2222H25.1111L26.2222 17.7778H21.7778V15.5556C21.7778 15.2609 21.8948 14.9783 22.1032 14.7699C22.3116 14.5615 22.5942 14.4444 22.8889 14.4444H26.2222V10H22.8889C21.4155 10 20.0024 10.5853 18.9605 11.6272C17.9186 12.6691 17.3333 14.0821 17.3333 15.5556V17.7778H14Z" stroke="white" stroke-width="2" stroke-linecap="round" stroke-linejoin="round"/>
</g>
</g>
<defs>
<filter id="filter0_bdi_236_49832" x="-10" y="-10" width="60" height="60" filterUnits="userSpaceOnUse" color-interpolation-filters="sRGB">
<feFlood flood-opacity="0" result="BackgroundImageFix"/>
<feGaussianBlur in="BackgroundImageFix" stdDeviation="5"/>
<feComposite in2="SourceAlpha" operator="in" result="effect1_backgroundBlur_236_49832"/>
<feColorMatrix in="SourceAlpha" type="matrix" values="0 0 0 0 0 0 0 0 0 0 0 0 0 0 0 0 0 0 127 0" result="hardAlpha"/>
<feOffset dy="1"/>
<feComposite in2="hardAlpha" operator="out"/>
<feColorMatrix type="matrix" values="0 0 0 0 0 0 0 0 0 0 0 0 0 0 0 0 0 0 0.25 0"/>
<feBlend mode="normal" in2="effect1_backgroundBlur_236_49832" result="effect2_dropShadow_236_49832"/>
<feBlend mode="normal" in="SourceGraphic" in2="effect2_dropShadow_236_49832" result="shape"/>
<feColorMatrix in="SourceAlpha" type="matrix" values="0 0 0 0 0 0 0 0 0 0 0 0 0 0 0 0 0 0 127 0" result="hardAlpha"/>
<feOffset dy="1"/>
<feComposite in2="hardAlpha" operator="arithmetic" k2="-1" k3="1"/>
<feColorMatrix type="matrix" values="0 0 0 0 0.505882 0 0 0 0 0.294118 0 0 0 0 0.964706 0 0 0 0.2 0"/>
<feBlend mode="normal" in2="shape" result="effect3_innerShadow_236_49832"/>
</filter>
<clipPath id="clip0_236_49832">
<rect width="40" height="40" fill="white"/>
</clipPath>
<clipPath id="clip1_236_49832">
<rect width="24" height="24" fill="white" transform="translate(8 8)"/>
</clipPath>
</defs>
</svg>
